<?xml version="1.0" encoding="utf-8"?>
<!-- Generator: Adobe Illustrator 23.1.0, SVG Export Plug-In . SVG Version: 6.00 Build 0)  -->
<svg version="1.1" id="Layer_1" xmlns="http://www.w3.org/2000/svg" xmlns:xlink="http://www.w3.org/1999/xlink" x="0px" y="0px"
	 viewBox="0 0 512 512" style="enable-background:new 0 0 512 512;" xml:space="preserve">
<style type="text/css">
	.st0{fill:#EAC113;}
</style>
<g>
	<path class="st0" d="M253.6,312.3c-21.9,0-39.7,17.8-39.7,39.7c0,21.9,17.8,39.7,39.7,39.7s39.7-17.8,39.7-39.7
		C293.4,330.1,275.5,312.3,253.6,312.3z M253.6,375.8c-13.1,0-23.8-10.7-23.8-23.8s10.7-23.8,23.8-23.8c13.1,0,23.8,10.7,23.8,23.8
		S266.8,375.8,253.6,375.8z"/>
	<path class="st0" d="M245.7,42.1h63.6V58h-63.6V42.1z"/>
	<path class="st0" d="M245.7,73.8h63.6v15.9h-63.6V73.8z"/>
	<path class="st0" d="M198,105.6h111.3v15.9H198V105.6z"/>
	<path class="st0" d="M198,137.4h111.3v15.9H198V137.4z"/>
	<path class="st0" d="M198,169.2h111.3v15.9H198V169.2z"/>
	<path class="st0" d="M500,264.6V201H388.7v63.6h47.7v79.5h-95.4v-13.7l-19.5-6.5l9.2-18.4l-30.6-30.6l-18.4,9.2l-6.5-19.5h-13.7
		v-47.7h79.5v-95.4h95.4v44.4l-18.2-18.2L407,158.9l37.4,37.4l37.4-37.4l-11.2-11.2l-18.2,18.2v-60.3H341.1V10.3H218.6l-52.3,52.3
		v43H55v60.3l-18.2-18.2l-11.2,11.2l37.4,37.4l37.4-37.4l-11.2-11.2l-18.2,18.2v-44.4h95.4v95.4h79.5v47.7H232l-6.5,19.5l-18.4-9.2
		l-30.6,30.6l9.2,18.4l-19.5,6.5v13.7H70.8v-79.5h47.7V201H7.3v63.6H55v128.3c-13.7,3.6-23.8,15.9-23.8,30.7
		c0,17.5,14.3,31.8,31.8,31.8s31.8-14.3,31.8-31.8c0-14.8-10.2-27.1-23.8-30.7v-32.9h47.7v96.8c-9.2,3.3-15.9,12-15.9,22.4
		c0,13.1,10.7,23.8,23.8,23.8s23.8-10.7,23.8-23.8c0-10.3-6.7-19.1-15.9-22.4v-96.8h31.8v13.7l19.5,6.5l-9.2,18.4l30.6,30.6
		l18.4-9.2l6.5,19.5h43.2l6.5-19.5l18.4,9.2l30.6-30.6l-9.2-18.4l19.5-6.5v-13.7h31.8v96.8c-9.2,3.3-15.9,12-15.9,22.4
		c0,13.1,10.7,23.8,23.8,23.8s23.8-10.7,23.8-23.8c0-10.3-6.7-19.1-15.9-22.4v-96.8h47.7v32.9c-13.7,3.6-23.8,15.9-23.8,30.7
		c0,17.5,14.3,31.8,31.8,31.8c17.5,0,31.8-14.3,31.8-31.8c0-14.8-10.2-27.1-23.8-30.7V264.6H500z M213.9,37.4V58h-20.6L213.9,37.4z
		 M182.1,73.8h47.7V26.2h95.4V201H182.1V73.8z M23.2,216.9h79.5v31.8H23.2V216.9z M78.8,423.5c0,8.8-7.1,15.9-15.9,15.9
		S47,432.3,47,423.5c0-8.8,7.1-15.9,15.9-15.9S78.8,414.8,78.8,423.5z M126.5,487.1c-4.4,0-7.9-3.6-7.9-7.9s3.6-7.9,7.9-7.9
		s7.9,3.6,7.9,7.9S130.9,487.1,126.5,487.1z M325.2,362.2l-18.2,6.1l-1.3,3.5c-0.4,1-0.8,2-1.2,3l-1.5,3.4l8.6,17.2L297,409.8
		l-17.2-8.6l-3.4,1.5c-1,0.4-2,0.8-3,1.2l-3.5,1.3l-6.1,18.3h-20.3l-6.1-18.3l-3.5-1.3c-1-0.4-2-0.8-3-1.2l-3.4-1.5l-17.2,8.6
		l-14.4-14.4l8.6-17.2l-1.5-3.4c-0.4-1-0.8-2-1.2-3l-1.3-3.5l-18.2-6.1v-20.3l18.2-6.1l1.3-3.5c0.4-1,0.8-2,1.2-3l1.5-3.4l-8.6-17.2
		l14.4-14.4l17.2,8.6l3.4-1.5c1-0.4,2-0.8,3-1.2l3.5-1.3l6.1-18.3h20.3l6.1,18.3l3.5,1.3c1,0.4,2,0.8,3,1.2l3.4,1.5l17.2-8.6
		l14.4,14.4l-8.6,17.2l1.5,3.4c0.4,1,0.8,2,1.2,3l1.3,3.5l18.2,6.1V362.2z M380.8,487.1c-4.4,0-7.9-3.6-7.9-7.9s3.6-7.9,7.9-7.9
		c4.4,0,7.9,3.6,7.9,7.9S385.2,487.1,380.8,487.1z M460.3,423.5c0,8.8-7.1,15.9-15.9,15.9c-8.8,0-15.9-7.1-15.9-15.9
		c0-8.8,7.1-15.9,15.9-15.9C453.1,407.6,460.3,414.8,460.3,423.5z M404.6,216.9h79.5v31.8h-79.5V216.9z"/>
</g>
</svg>
