<?xml version="1.0" encoding="utf-8"?>
<!-- Generator: Adobe Illustrator 23.1.0, SVG Export Plug-In . SVG Version: 6.00 Build 0)  -->
<svg version="1.1" id="Capa_1" xmlns="http://www.w3.org/2000/svg" xmlns:xlink="http://www.w3.org/1999/xlink" x="0px" y="0px"
	 viewBox="0 0 512 512" style="enable-background:new 0 0 512 512;" xml:space="preserve">
<style type="text/css">
	.st0{fill:#EAC113;}
</style>
<circle class="st0" cx="346" cy="313" r="10"/>
<circle class="st0" cx="346" cy="439" r="10"/>
<circle class="st0" cx="286" cy="313" r="10"/>
<circle class="st0" cx="286" cy="439" r="10"/>
<path class="st0" d="M391,201c30.3,0,55-24.7,55-55c0-30.3-24.7-55-55-55h-5.7c-4.9-33.9-34.1-60-69.3-60c-5.6,0-11.2,0.7-17,2.3
	C280,12.7,253.8,1,226,1c-51.8,0-94.5,39.5-99.5,90H121c-30.3,0-55,24.7-55,55c0,30.3,24.7,55,55,55h125v40H106c-5.5,0-10,4.5-10,10
	v252c0,5.5,4.5,10,10,10h105c5.5,0,10-4.5,10-10c0-5.5-4.5-10-10-10h-95V387h280v106h-95c-5.5,0-10,4.5-10,10c0,5.5,4.5,10,10,10
	h105c5.5,0,10-4.5,10-10c0-7.1,0-244.9,0-252c0-5.5-4.5-10-10-10H266v-40H391z M396,261v106H116V261H396z"/>
<circle class="st0" cx="256" cy="502" r="10"/>
</svg>
