<?xml version="1.0" encoding="utf-8"?>
<!-- Generator: Adobe Illustrator 23.1.0, SVG Export Plug-In . SVG Version: 6.00 Build 0)  -->
<svg version="1.1" id="Layer_1" xmlns="http://www.w3.org/2000/svg" xmlns:xlink="http://www.w3.org/1999/xlink" x="0px" y="0px"
	 viewBox="0 0 512 512" style="enable-background:new 0 0 512 512;" xml:space="preserve">
<style type="text/css">
	.st0{fill:#EAC113;}
</style>
<g>
	<g>
		<path class="st0" d="M334.3,305.2l-21.8-139.3L326.3,8.9c0.2-2.3-0.6-4.6-2.1-6.3C322.6,1,320.4,0,318.1,0h-121
			c-2.3,0-4.5,1-6,2.6s-2.3,3.9-2.2,6.2l11.5,153.7c-0.3,0.7-0.6,1.5-0.7,2.3l-21.9,140.3c-0.3,1.7,0,3.4,0.8,4.9l70.2,140.3
			c1.4,2.8,4.2,4.5,7.4,4.5s6-1.8,7.4-4.5l70.2-140.3C334.3,308.6,334.6,306.9,334.3,305.2z M309.1,16.4l-12.4,141.4h-80.2
			L205.9,16.4C205.9,16.4,309.1,16.4,309.1,16.4z M256,289.4c-12.4,0-22.5-10.1-22.5-22.5s10.1-22.5,22.5-22.5s22.5,10.1,22.5,22.5
			S268.4,289.4,256,289.4z M264.2,411.9V305c17.5-3.8,30.7-19.4,30.7-38c0-21.5-17.5-38.9-38.9-38.9s-38.9,17.5-38.9,38.9
			c0,18.6,13.2,34.3,30.7,38v106.9l-53.4-106.8l20.4-130.8h82.4l20.4,130.8L264.2,411.9z"/>
	</g>
</g>
<g>
	<g>
		<path class="st0" d="M418.3,451.7h-43.9c-4.5,0-8.2,3.7-8.2,8.2v13.7H145.8v-13.7c0-4.5-3.7-8.2-8.2-8.2H93.7
			c-4.5,0-8.2,3.7-8.2,8.2v43.9c0,4.5,3.7,8.2,8.2,8.2h43.9c4.5,0,8.2-3.7,8.2-8.2v-13.7h220.4v13.7c0,4.5,3.7,8.2,8.2,8.2h43.9
			c4.5,0,8.2-3.7,8.2-8.2v-43.9C426.5,455.4,422.8,451.7,418.3,451.7z M129.4,495.6H102v-27.4h27.4V495.6z M410,495.6h-27.4v-27.4
			H410V495.6z"/>
	</g>
</g>
<g>
	<g>
		<path class="st0" d="M457.7,254.4c-4.5,0-8.2,3.7-8.2,8.2c0,106.7-86.8,193.5-193.5,193.5S62.5,369.3,62.5,262.6
			c0-4.5-3.7-8.2-8.2-8.2c-4.5,0-8.2,3.7-8.2,8.2c0,115.8,94.2,210,210,210s210-94.2,210-210C466,258,462.3,254.4,457.7,254.4z"/>
	</g>
</g>
</svg>
