<svg xmlns="http://www.w3.org/2000/svg" viewBox="0 0 225 225"><defs><style>.cls-1{fill:#eac113;}</style></defs><title>photoshop</title><g id="Layer_2" data-name="Layer 2"><g id="Layer_1-2" data-name="Layer 1"><path class="cls-1" d="M0,214V11C1.77,5.44,5.57,1.91,11,0H214a17,17,0,0,1,11,11V214a17.38,17.38,0,0,1-11,11H11A17.12,17.12,0,0,1,0,214ZM37,44.64V167H65V123.35c3.27,0,5.94,0,8.61,0,11.11.26,21.87-1.21,31.94-6.19,15.38-7.62,23.59-23.53,21.27-41.19-2.11-16-13.38-28.08-30.19-31.53C76.85,40.38,57.05,42.28,37,44.64ZM191.21,80.18C173.72,74.43,156.9,71.86,141,82.5c-16.41,11-16.11,32.57.44,43.13,4.43,2.82,9.56,4.55,14.38,6.75,2.86,1.31,6.15,2.07,8.49,4a9.08,9.08,0,0,1,3.07,6.59c-.13,1.92-2.34,4.18-4.22,5.37a9.66,9.66,0,0,1-6.24,1.12c-8.41-1.41-16.75-3.2-25.55-4.93-1.32,5.46-2.91,12-4.78,19.72,8.21,1.72,15.72,3.9,23.37,4.76,11.4,1.27,22.64.08,32.68-6.28a26.07,26.07,0,0,0,.85-44c-3.93-2.67-8.56-4.31-12.91-6.33-3.61-1.68-7.58-2.77-10.8-5-1.79-1.23-3.5-4.4-3.2-6.38s2.8-4.38,4.91-5.32a14.23,14.23,0,0,1,7.81-.59c5.65,1,11.2,2.55,17.07,4C187.83,93.26,189.4,87.19,191.21,80.18Z"/><path class="cls-1" d="M65,100.81V64c6.17,0,12.15-.57,18,.14,8.5,1,13.94,6.86,14.84,14.49,1.06,9-2.85,16.69-10.52,20.21C80.22,102.05,72.81,101.82,65,100.81Z"/></g></g></svg>