<?xml version="1.0" encoding="utf-8"?>
<!-- Generator: Adobe Illustrator 23.1.0, SVG Export Plug-In . SVG Version: 6.00 Build 0)  -->
<svg version="1.1" id="Layer_1" xmlns="http://www.w3.org/2000/svg" xmlns:xlink="http://www.w3.org/1999/xlink" x="0px" y="0px"
	 viewBox="0 0 80 80" style="enable-background:new 0 0 80 80;" xml:space="preserve">
<style type="text/css">
	.st0{fill:#EAC113;}
</style>
<path class="st0" d="M69,5H11c-3.3,0-6,2.7-6,6v47c0,3.3,2.7,6,6,6h18.8c-0.6,2.8-2.2,5.3-5,7.4c-0.7,0.5-0.9,1.4-0.7,2.2
	c0.3,0.8,1,1.4,1.9,1.4h28c0.8,0,1.6-0.5,1.9-1.3c0.3-0.8,0-1.7-0.6-2.2c-3.1-2.5-4.8-5-5.2-7.5H69c3.3,0,6-2.7,6-6V11
	C75,7.7,72.3,5,69,5z M11,9h58c1.1,0,2,0.9,2,2v39H9V11C9,9.9,9.9,9,11,9z M49.2,71H30.8c1.6-2.1,2.6-4.4,3-7H46
	C46.3,66.4,47.3,68.7,49.2,71z M69,60H48H32H11c-1.1,0-2-0.9-2-2v-4h62v4C71,59.1,70.1,60,69,60z"/>
<path class="st0" d="M42,55h-4c-1.1,0-2,0.9-2,2s0.9,2,2,2h4c1.1,0,2-0.9,2-2S43.1,55,42,55z M57.3,29.8c0.4,0.5,1,0.8,1.6,0.8
	c0.4,0,0.8-0.1,1.2-0.4l6.1-4.6c0.5-0.4,0.8-1,0.8-1.6s-0.3-1.2-0.8-1.6l-6.1-4.6c-0.9-0.7-2.1-0.5-2.8,0.4
	c-0.7,0.9-0.5,2.1,0.4,2.8l4,3l-4,3C56.8,27.7,56.7,28.9,57.3,29.8z M36,24c0,0.6,0.3,1.2,0.8,1.6l6.1,4.6c0.4,0.3,0.8,0.4,1.2,0.4
	c0.6,0,1.2-0.3,1.6-0.8c0.7-0.9,0.5-2.1-0.4-2.8l-4-3l4-3c0.9-0.7,1-1.9,0.4-2.8c-0.7-0.9-1.9-1.1-2.8-0.4l-6.1,4.6
	C36.3,22.8,36,23.4,36,24z M47.4,35.9c0.2,0.1,0.4,0.1,0.6,0.1c0.8,0,1.6-0.5,1.9-1.4l6.8-20c0.4-1-0.2-2.2-1.2-2.5
	c-1-0.4-2.2,0.2-2.5,1.2l-6.8,20C45.8,34.4,46.4,35.5,47.4,35.9z M15,45h47c1.1,0,2-0.9,2-2s-0.9-2-2-2H15c-1.1,0-2,0.9-2,2
	S13.9,45,15,45z M15,36h19c1.1,0,2-0.9,2-2s-0.9-2-2-2H15c-1.1,0-2,0.9-2,2S13.9,36,15,36z M15,27h15c1.1,0,2-0.9,2-2s-0.9-2-2-2H15
	c-1.1,0-2,0.9-2,2S13.9,27,15,27z M15,18h21c1.1,0,2-0.9,2-2s-0.9-2-2-2H15c-1.1,0-2,0.9-2,2S13.9,18,15,18z"/>
</svg>
