<?xml version="1.0" encoding="utf-8"?>
<!-- Generator: Adobe Illustrator 23.1.0, SVG Export Plug-In . SVG Version: 6.00 Build 0)  -->
<svg version="1.1" id="Layer_1" xmlns="http://www.w3.org/2000/svg" xmlns:xlink="http://www.w3.org/1999/xlink" x="0px" y="0px"
	 viewBox="0 0 1280 1278" style="enable-background:new 0 0 1280 1278;" xml:space="preserve">
<style type="text/css">
	.st0{fill:#EAC113;}
</style>
<g transform="translate(0.000000,1278.000000) scale(0.100000,-0.100000)">
	<path class="st0" d="M7948,11224c-458-71-953-326-1220-629c-494-561-517-1347-64-2230c150-293,279-478,465-669
		c251-257,528-414,851-483c119-25,446-25,574,1c458,92,901,330,1158,621c485,549,512,1328,78,2220c-331,679-809,1086-1374,1170
		C8291,11243,8068,11243,7948,11224z M8101,9984c72-39,180-150,254-259c128-193,295-568,356-802c40-153,43-265,10-338
		c-61-137-233-222-362-180c-137,45-314,301-497,715c-110,250-161,434-162,583c0,120,14,168,64,223C7851,10021,7988,10044,8101,9984z
		"/>
	<path class="st0" d="M4540,9660c-509-231-936-428-949-438c-14-10-34-36-45-57c-44-86-84,10,698-1715c395-872,730-1607,744-1633
		c34-64,89-97,161-97c47,0,138,39,959,411c499,226,926,422,949,435c58,34,87,85,87,154c0,50-15,88-163,414c-91,197-176,372-190,389
		c-32,38-78,57-137,57c-39,0-107-27-418-169c-204-92-380-171-391-174c-18-6-27,8-73,110c-29,64-49,120-44,125c4,4,151,73,326,152
		c175,80,327,153,339,163c29,26,57,92,57,138c0,30-39,125-161,395c-132,292-167,362-198,392c-42,40-105,62-148,52
		c-15-3-173-71-351-151s-325-143-328-141c-6,7-112,243-109,246c1,1,170,78,376,171c243,110,387,181,412,203c46,39,71,105,62,157
		c-4,20-82,200-174,400c-192,420-193,423-304,428l-62,4L4540,9660z"/>
	<path class="st0" d="M2630,8789c-507-76-976-297-1256-590c-278-292-408-672-349-1015c66-376,295-677,638-839
		c228-107,476-173,892-235c348-52,426-75,451-137c13-30,12-37-6-73c-22-44-86-90-175-127c-125-53-309-83-561-91c-186-7-192-8-232-35
		c-23-15-51-45-62-67c-41-80-36-94,160-527c98-218,190-407,202-421c13-14,43-34,67-44c49-22,120-20,316,8c397,58,813,235,1106,472
		c285,230,494,572,539,881c17,114,8,304-19,407c-51,197-156,382-295,519s-291,223-536,305c-250,83-400,115-695,149
		c-249,30-382,64-445,118c-38,31-38,53,1,97c91,104,326,170,654,182c130,5,157,9,200,30c71,33,100,80,100,158c-1,57-12,85-169,431
		c-93,204-177,382-188,397c-27,40-95,68-159,67C2779,8809,2699,8800,2630,8789z"/>
	<path class="st0" d="M9625,7115c-654-74-1213-138-1241-145l-51-11l4-47c3-26,34-121,69-212s64-178,64-192c0-24-16-34-202-126
		c-271-133-427-237-753-502c-339-275-597-380-1018-410c-366-27-431-33-563-55c-329-56-633-154-927-301c-253-127-417-235-687-453
		c-403-324-601-404-1080-431c-358-20-588-55-845-126c-72-19-160-49-196-66l-67-30l5-41c6-54,79-246,107-281l21-27l81,25
		c166,50,303,69,601,86c480,27,845,117,1203,295c230,114,390,220,660,436c307,246,507,355,785,429c152,41,271,58,475,70
		c217,13,329,24,490,51c540,90,996,306,1494,708c267,215,468,341,550,345c30,1,30,0,106-189c85-215,105-255,124-255
		c8,0,112,71,233,158c1238,896,1831,1328,1848,1344c16,15,17,20,7,27c-10,6-5,15,20,35l33,26l-80-1C10851,7248,10280,7188,9625,7115
		z"/>
	<path class="st0" d="M9715,5981c-79-37-140-98-178-179l-32-67V3405c0-2217,1-2332,18-2358l18-27l566,2l567,3l13,45
		c11,37,13,481,11,2360l-3,2315l-26,56c-38,80-90,133-171,174l-71,35h-326l-326-1L9715,5981z"/>
	<path class="st0" d="M8419,5560c-107-19-206-99-256-205l-28-60l-2-2085c-2-1641,0-2096,10-2135l12-50h575h575l12,50
		c10,39,12,494,10,2135l-2,2085l-28,60c-36,78-104,146-181,182l-61,28l-295,2C8598,5568,8444,5565,8419,5560z"/>
	<path class="st0" d="M7065,5121c-112-16-215-93-267-199l-33-67l-3-1870c-2-1514,0-1879,11-1915l13-45l567-3l566-2l18,27
		c17,26,18,122,18,1918v1890l-27,55c-41,83-89,133-170,176l-73,38l-285,2C7243,5127,7093,5125,7065,5121z"/>
	<path class="st0" d="M5612,4458c-76-30-145-96-184-176l-33-67l-3-1555c-2-1293,0-1563,11-1596l14-39h569h569l15,30
		c13,26,15,217,15,1590v1560l-31,65c-43,91-83,133-166,175l-71,35l-326-1C5684,4479,5662,4477,5612,4458z"/>
	<path class="st0" d="M4263,3762c-100-36-167-95-212-192l-26-55l-3-1206c-2-998,0-1212,11-1245l14-39h569h569l15,30
		c13,26,15,178,15,1230v1200l-24,63c-32,85-95,153-179,194l-67,33l-315,2C4347,3780,4310,3778,4263,3762z"/>
	<path class="st0" d="M2914,3141c-103-26-204-115-242-216l-22-57v-889c0-754,2-895,14-924l15-35h565h565l18,32c17,31,18,89,18,923
		v890l-23,57c-31,76-108,160-180,195l-57,28l-320,2C3089,3148,2931,3145,2914,3141z"/>
</g>
</svg>
