<svg xmlns="http://www.w3.org/2000/svg" enable-background="new 0 0 80 80" viewBox="0 0 80 80"><path d="M69,5H11c-3.3085938,0-6,2.6914062-6,6v47c0,3.3085938,2.6914062,6,6,6h18.7525635
	c-0.5761719,2.8342285-2.2041016,5.2797852-4.9742432,7.4160156c-0.6777344,0.5234375-0.9472656,1.4189453-0.6708984,2.2294922
	C24.3828125,74.4550781,25.1445312,75,26,75h28c0.84375,0,1.5957031-0.5292969,1.8818359-1.3222656
	c0.2851562-0.7939453,0.0429688-1.6806641-0.6064453-2.21875C52.2054443,68.918457,50.5087891,66.4621582,50.0892334,64H69
	c3.3085938,0,6-2.6914062,6-6V11C75,7.6914062,72.3085938,5,69,5z M11,9h58c1.1025391,0,2,0.8974609,2,2v39H9V11
	C9,9.8974609,9.8974609,9,11,9z M49.1728516,71H30.84375c1.6113281-2.1054688,2.6113281-4.4453125,2.9892578-7h12.1972656
	C46.2929688,66.3896484,47.34375,68.7294922,49.1728516,71z M69,60H48H32H11c-1.1025391,0-2-0.8974609-2-2v-4h62v4
	C71,59.1025391,70.1025391,60,69,60z"/><path d="M42 55h-4c-1.1044922 0-2 .8955078-2 2s.8955078 2 2 2h4c1.1044922 0 2-.8955078 2-2S43.1044922 55 42 55zM57.3486328 29.8271484c.3935547.5166016.9892578.7880859 1.5927734.7880859.421875 0 .8476562-.1328125 1.2099609-.4091797l6.0605469-4.6152344C66.7080078 25.2128906 67 24.6240234 67 24s-.2919922-1.2128906-.7880859-1.5908203l-6.0605469-4.6152344c-.8798828-.671875-2.1337891-.4990234-2.8027344.3789062-.6699219.8789062-.5 2.1337891.3789062 2.8027344L61.6992188 24l-3.9716797 3.0244141C56.8486328 27.6933594 56.6787109 28.9482422 57.3486328 29.8271484zM36 24c0 .6240234.2919922 1.2128906.7880859 1.5908203l6.0605469 4.6152344c.3623047.2763672.7880859.4091797 1.2099609.4091797.6035156 0 1.1992188-.2714844 1.5927734-.7880859.6699219-.8789062.5-2.1337891-.3789062-2.8027344L41.3007812 24l3.9716797-3.0244141c.8789062-.6689453 1.0488281-1.9238281.3789062-2.8027344-.6689453-.8779297-1.9228516-1.0507812-2.8027344-.3789062l-6.0605469 4.6152344C36.2919922 22.7871094 36 23.3759766 36 24zM47.4453125 35.8925781c.2138672.0732422.4316406.1083984.6455078.1083984.8320312 0 1.609375-.5244141 1.8925781-1.3554688l6.8183594-20c.3564453-1.0458984-.2021484-2.1816406-1.2470703-2.5380859-1.0478516-.3583984-2.1826172.2021484-2.5380859 1.2470703l-6.8183594 20C45.8417969 34.4003906 46.4003906 35.5361328 47.4453125 35.8925781zM15 45h47c1.1044922 0 2-.8955078 2-2s-.8955078-2-2-2H15c-1.1044922 0-2 .8955078-2 2S13.8955078 45 15 45zM15 36h19c1.1044922 0 2-.8955078 2-2s-.8955078-2-2-2H15c-1.1044922 0-2 .8955078-2 2S13.8955078 36 15 36zM15 27h15c1.1044922 0 2-.8955078 2-2s-.8955078-2-2-2H15c-1.1044922 0-2 .8955078-2 2S13.8955078 27 15 27zM15 18h21c1.1044922 0 2-.8955078 2-2s-.8955078-2-2-2H15c-1.1044922 0-2 .8955078-2 2S13.8955078 18 15 18z"/></svg>