<svg xmlns="http://www.w3.org/2000/svg" viewBox="0 0 179.11 139.42"><defs><style>.cls-1{fill:#eac113;}</style></defs><title>webdesign</title><g id="Layer_2" data-name="Layer 2"><g id="Layer_1-2" data-name="Layer 1"><path class="cls-1" d="M161.6,32.1V127H10c-.09-1.27-.27-2.71-.27-4.14,0-28.33,0-56.66-.08-85,0-4.08,1.17-6.43,5.52-6.43H136.63c-4.27,4.38-7.21,8.19-13.76,8.12-33.16-.34-66.32-.08-99.48-.24-4.26,0-5.8,1-5.76,5.52.22,23.16.19,46.33,0,69.49,0,3.92,1.07,5.17,5.09,5.16q63-.2,126,0c4,0,5.11-1.28,5.08-5.18-.16-22.33.27-44.67-.28-67C153.36,40.51,156.39,36.62,161.6,32.1Z"/><path class="cls-1" d="M91.39,99.72c2.25-.77,4.48-2.15,6.74-2.22,9.32-.25,18.65-.14,28-.08,2.48,0,4.47-.14,3.21-3.82H104.53c2-7.58,7.83-12.2,15.19-12.2,9.79,0,19.59,0,30,0v33.74H22.15V81.76h63.4l-3.14,7.77H46V107H81.17c.82-6.1,6-6.25,10.39-7.47.19,1.22.38,2.45.55,3.6H113.3l.92-1.11c-1-.88-1.94-2.51-2.93-2.53C104.66,99.4,98,99.61,91.39,99.72Z"/><path class="cls-1" d="M0,131.4H30.88c8.16,0,16.32-.22,24.47,0,15.31.51,30.85,3.26,45.87,1.49,22.23-2.64,44.33-.37,66.45-1.52,1.15-.06,2.3,0,3.41,0,.71,5.12-1,7.5-5.52,8a30,30,0,0,1-3,0H8.78C1.74,139.39,0,137.83,0,131.4Z"/><path class="cls-1" d="M177.7,0a55,55,0,0,1,1.4,6.54c.05.57-1,1.24-1.57,1.85C163,24.23,148.36,39.92,134.09,56c-3.92,4.42-5.57,1.39-8.15-1-2.77-2.54-4.4-4.33-.54-7.77,16-14.3,31.74-28.94,47.59-43.44C174.05,2.82,175.24,2,177.7,0Z"/><path class="cls-1" d="M83.18,98.14c2.55-6.06,4-11.06,6.71-15.33,1.43-2.3,4.72-3.7,7.46-4.84,2.37-1,4.38-1.4,3.38-4.74a4.15,4.15,0,0,1,1.14-3.44c4.79-4.55,9.75-8.93,14.66-13.36,2.68-2.41,4.44-.58,6.2,1.36s4.65,3.41,1.93,6.5c-4.49,5.08-9,10.1-13.61,15.11-.44.47-1.23,1.16-1.63,1-5.9-1.89-5.72,2.46-6.87,6.1a9.64,9.64,0,0,1-4.38,5C93.81,93.84,89.12,95.56,83.18,98.14ZM99.87,85.35c-1.92-1.25-3.14-2.64-4.1-2.49S93.92,84.65,93,85.63c1,.9,1.92,2.43,3,2.51S98.05,86.74,99.87,85.35Z"/><path class="cls-1" d="M46.61,57.53H95.26c1,2.64.52,3.91-2.63,3.9-14.65-.08-29.31,0-44-.15-1.12,0-2.23-1.57-3.35-2.42Z"/><path class="cls-1" d="M90.91,55.28H46.28c-1.06-2.6-.72-3.93,2.5-3.91,13.32.07,26.64,0,40,.14,1.14,0,2.26,1.52,3.39,2.33Z"/><path class="cls-1" d="M87,67.27H46.37c-1.14-2.46-1-3.92,2.32-3.9,12,.07,24,0,36,.13,1.18,0,2.34,1.47,3.5,2.26Z"/><path class="cls-1" d="M91.39,99.72c6.64-.11,13.27-.32,19.9-.19,1,0,1.95,1.65,2.93,2.53l-.92,1.11H92.11c-.17-1.15-.36-2.38-.55-3.6Z"/><path class="cls-1" d="M99.87,85.35C98.05,86.74,97,88.22,96,88.14s-2-1.61-3-2.51c.9-1,1.71-2.59,2.75-2.77S98,84.1,99.87,85.35Z"/></g></g></svg>